<svg width="98" height="97" viewBox="0 0 98 97" fill="none" xmlns="http://www.w3.org/2000/svg">
<path d="M44.2816 5.67587C45.387 0.251644 53.1379 0.251644 54.2432 5.67587L56.1459 15.0127C57.12 19.7927 62.7979 21.8593 66.6167 18.8237L74.0758 12.8943C78.4092 9.44966 84.3467 14.4318 81.7069 19.2976L77.1628 27.673C74.8365 31.9609 77.8576 37.1936 82.7342 37.3229L92.2596 37.5754C97.7934 37.722 99.1393 45.3552 93.9894 47.3857L85.1248 50.8808C80.5866 52.6701 79.5373 58.6206 83.1899 61.8542L90.3245 68.1704C94.4693 71.8398 90.5939 78.5523 85.3437 76.7974L76.3064 73.7768C71.6797 72.2304 67.0511 76.1143 67.7706 80.9392L69.176 90.3637C69.9925 95.8389 62.709 98.4899 59.8151 93.7708L54.8338 85.6478C52.2836 81.4892 46.2413 81.4892 43.6911 85.6478L38.7097 93.7708C35.8158 98.4899 28.5324 95.8389 29.3489 90.3637L30.7543 80.9392C31.4738 76.1143 26.8451 72.2304 22.2185 73.7768L13.1812 76.7974C7.93098 78.5523 4.05554 71.8398 8.20037 68.1704L15.335 61.8542C18.9875 58.6206 17.9383 52.6701 13.4 50.8808L4.53546 47.3857C-0.61442 45.3552 0.731504 37.722 6.26527 37.5754L15.7907 37.3229C20.6672 37.1936 23.6884 31.9609 21.362 27.673L16.818 19.2976C14.1781 14.4318 20.1156 9.44966 24.449 12.8943L31.9082 18.8237C35.7269 21.8593 41.4048 19.7927 42.3789 15.0127L44.2816 5.67587Z" stroke="#2C79DB" stroke-width="1.45234"/>
</svg>
